<?xml version="1.0" standalone="no"?>
<!DOCTYPE svg PUBLIC "-//W3C//DTD SVG 20010904//EN"
 "http://www.w3.org/TR/2001/REC-SVG-20010904/DTD/svg10.dtd">
<svg version="1.0" xmlns="http://www.w3.org/2000/svg"
 width="999.000000pt" height="970.000000pt" viewBox="0 0 999.000000 970.000000"
 preserveAspectRatio="xMidYMid meet">

<g transform="translate(0.000000,970.000000) scale(0.100000,-0.100000)"
fill="#000000" stroke="none">
<path d="M6082 9170 l-62 -97 -103 28 c-56 16 -108 28 -114 29 -7 0 20 -41 61
-91 l74 -91 -63 -96 c-34 -54 -61 -98 -60 -100 1 -2 51 16 111 38 107 41 108
41 123 21 95 -122 127 -160 131 -161 3 0 2 51 -2 113 -3 61 -3 115 0 119 4 4
50 23 102 43 52 21 99 40 104 43 5 3 -42 19 -105 36 l-114 31 -5 112 c-3 62
-8 114 -10 116 -3 2 -33 -40 -68 -93z"/>
<path d="M4312 8728 c-18 -32 -37 -60 -42 -63 -5 -3 -37 1 -72 9 -35 8 -64 13
-65 12 -1 -1 18 -26 44 -55 50 -58 51 -53 -2 -138 l-26 -43 23 9 c13 5 43 19
68 30 l45 21 48 -53 48 -52 -5 71 -6 72 67 28 c74 32 78 26 -34 54 l-41 10 -9
73 -8 72 -33 -57z"/>
<path d="M5951 8622 c-165 -273 -442 -598 -666 -778 -546 -438 -1150 -518
-1733 -229 -139 69 -254 143 -371 238 -80 66 -226 206 -280 271 -18 21 -33 37
-35 35 -3 -4 334 -1330 339 -1337 2 -2 31 15 65 37 74 48 143 75 265 104 81
19 118 22 370 22 307 -1 407 -10 775 -70 816 -135 1460 -332 2051 -626 361
-181 616 -378 700 -541 18 -38 36 -68 39 -68 6 0 138 133 648 654 172 175 311
320 310 322 -2 1 -54 -13 -115 -32 -222 -67 -403 -94 -623 -94 -602 1 -1064
265 -1370 783 -179 302 -298 760 -317 1220 -3 81 -9 147 -12 147 -3 0 -21 -26
-40 -58z"/>
<path d="M2785 8490 c-4 -33 -13 -67 -20 -74 -8 -7 -42 -16 -77 -20 l-63 -8
63 -35 c68 -38 70 -43 51 -122 -5 -24 -8 -45 -6 -47 2 -2 26 17 55 42 l51 45
61 -31 c33 -17 60 -27 60 -23 -1 5 -14 33 -30 63 l-28 55 51 53 52 54 -45 -7
c-25 -3 -56 -8 -70 -11 -23 -4 -29 2 -55 56 -16 34 -32 63 -36 66 -4 2 -10
-23 -14 -56z"/>
<path d="M4245 8323 c-91 -258 -273 -498 -457 -601 -27 -15 -48 -30 -48 -34 0
-12 188 -66 290 -84 72 -12 133 -15 250 -11 175 5 278 28 432 92 l87 37 -82
61 c-185 137 -301 287 -402 520 l-42 97 -28 -77z"/>
<path d="M7442 7878 l-43 -57 -47 15 c-102 31 -99 33 -53 -28 22 -30 41 -58
41 -63 0 -5 -18 -32 -40 -62 -23 -29 -37 -53 -32 -53 5 0 35 9 68 20 l59 21
20 -24 c11 -14 32 -40 47 -58 l27 -34 0 72 1 71 65 22 c36 12 65 23 65 25 0 2
-29 13 -65 25 l-64 21 -3 72 -3 72 -43 -57z"/>
<path d="M7315 7560 c-34 -38 -194 -140 -297 -190 -118 -57 -266 -98 -385
-107 -46 -3 -83 -9 -83 -13 0 -18 100 -142 175 -216 84 -83 204 -169 313 -223
114 -57 381 -136 399 -118 3 4 -1 17 -10 30 -26 40 -77 167 -99 251 -19 70
-22 106 -22 266 0 138 4 204 17 259 9 41 15 76 13 78 -1 2 -11 -6 -21 -17z"/>
<path d="M8472 6960 c21 -56 38 -134 30 -139 -5 -3 -33 -22 -63 -41 l-54 -35
76 -3 75 -3 18 -70 c10 -38 20 -68 22 -66 2 2 14 32 27 67 l24 63 74 -1 74 -2
-34 28 c-19 15 -45 36 -58 47 l-23 20 25 68 25 68 -61 -42 -61 -41 -61 48
c-33 27 -58 42 -55 34z"/>
<path d="M3682 6850 c-225 -26 -395 -106 -423 -199 -24 -81 51 -218 180 -330
67 -58 85 -66 46 -20 -97 116 -95 228 4 291 103 65 242 89 521 89 395 -1 828
-64 1307 -192 504 -134 853 -260 1178 -422 362 -181 540 -312 611 -449 60
-118 12 -200 -151 -255 -39 -13 -38 -13 34 -8 188 14 351 124 351 237 0 100
-136 255 -350 397 -150 100 -497 273 -735 367 -205 81 -525 188 -730 244 -320
87 -843 187 -1200 230 -188 23 -530 33 -643 20z"/>
<path d="M2470 3580 l0 -2230 485 0 485 0 2 1418 3 1417 1080 -1418 1080
-1417 417 0 418 0 0 2230 0 2230 -485 0 -485 0 -2 -1368 -3 -1368 -415 546
c-229 300 -697 915 -1040 1367 l-625 822 -457 1 -458 0 0 -2230z"/>
</g>
</svg>
